<?xml version="1.0" standalone="no"?>
<!DOCTYPE svg PUBLIC "-//W3C//DTD SVG 20010904//EN"
 "http://www.w3.org/TR/2001/REC-SVG-20010904/DTD/svg10.dtd">
<svg version="1.0" xmlns="http://www.w3.org/2000/svg"
 width="700.000000pt" height="700.000000pt" viewBox="0 0 700.000000 700.000000"
 preserveAspectRatio="xMidYMid meet">
<metadata>
Created by potrace 1.14, written by Peter Selinger 2001-2017
</metadata>
<g transform="translate(0.000000,700.000000) scale(0.100000,-0.100000)"
fill="#000000" stroke="none">
<path d="M1629 6996 c-2 -2 -31 -7 -64 -10 -463 -52 -924 -319 -1207 -698
-159 -214 -279 -481 -322 -719 -9 -46 -19 -97 -23 -114 -11 -45 -13 -3798 -2
-3875 5 -36 16 -101 25 -145 9 -44 17 -87 19 -96 2 -9 20 -65 39 -124 88 -263
223 -481 421 -681 118 -119 168 -160 295 -244 220 -145 508 -249 766 -277 38
-5 917 -8 1954 -8 l1885 0 117 23 c486 93 898 363 1169 767 133 199 234 454
274 693 4 23 9 54 13 70 10 47 11 3792 1 3862 -39 276 -125 527 -251 727 -268
430 -689 723 -1173 817 -44 9 -93 19 -110 23 -30 7 -3818 16 -3826 9z"/>
</g>
</svg>
