<svg width="800" height="800" viewBox="0 0 800 800" fill="none" xmlns="http://www.w3.org/2000/svg">
<rect width="800" height="800" rx="204" fill="url(#paint0_linear_2_2)"/>
<path fill-rule="evenodd" clip-rule="evenodd" d="M745.928 285H54V514.73H104V285H154.776V514.73H211.645V285H262.421V514.73H319.29V285H370.066V514.73H426.934V285H477.71V514.73H534.579V285H585.355V514.73H642.224V285H693V514.73H745.928V285Z" fill="white"/>
<rect x="745.964" y="600.224" width="246.021" height="63.9857" transform="rotate(-180 745.964 600.224)" fill="white"/>
<rect x="54.036" y="199.776" width="246.021" height="63.9857" fill="white"/>
<rect x="478.708" y="600.224" width="424.672" height="63.9857" transform="rotate(-180 478.708 600.224)" fill="white"/>
<rect x="321.292" y="199.776" width="424.672" height="63.9857" fill="white"/>
<defs>
<linearGradient id="paint0_linear_2_2" x1="800" y1="0" x2="0" y2="800" gradientUnits="userSpaceOnUse">
<stop stop-color="#34AC48"/>
<stop offset="1" stop-color="#FECB25"/>
</linearGradient>
</defs>
</svg>
